<mxfile host="app.diagrams.net" modified="2020-10-05T19:38:34.136Z" agent="5.0 (Windows NT 10.0; Win64; x64) AppleWebKit/537.36 (KHTML, like Gecko) Chrome/85.0.4183.121 Safari/537.36" etag="IUj6HfnhR1_YmHKO5_fY" version="13.7.7" type="github">
  <diagram id="R2lEEEUBdFMjLlhIrx00" name="Page-1">
    <mxGraphModel dx="1038" dy="580" grid="1" gridSize="10" guides="1" tooltips="1" connect="1" arrows="1" fold="1" page="1" pageScale="1" pageWidth="850" pageHeight="1100" math="0" shadow="0" extFonts="Permanent Marker^https://fonts.googleapis.com/css?family=Permanent+Marker">
      <root>
        <mxCell id="0" />
        <mxCell id="1" parent="0" />
        <mxCell id="EQfEUF1p5F015XXyak6D-54" value="" style="edgeStyle=entityRelationEdgeStyle;fontSize=12;html=1;endArrow=ERoneToMany;" parent="1" source="EQfEUF1p5F015XXyak6D-20" target="EQfEUF1p5F015XXyak6D-23" edge="1">
          <mxGeometry width="100" height="100" relative="1" as="geometry">
            <mxPoint x="360" y="320" as="sourcePoint" />
            <mxPoint x="460" y="220" as="targetPoint" />
          </mxGeometry>
        </mxCell>
        <mxCell id="0LHgYcajdqst7iCxihsN-1" value="Fk" style="text;html=1;strokeColor=none;fillColor=none;align=center;verticalAlign=middle;whiteSpace=wrap;rounded=0;" parent="1" vertex="1">
          <mxGeometry x="40" y="250" width="40" height="20" as="geometry" />
        </mxCell>
        <mxCell id="EQfEUF1p5F015XXyak6D-23" value="user_account" style="shape=table;startSize=30;container=1;collapsible=1;childLayout=tableLayout;fixedRows=1;rowLines=0;fontStyle=1;align=center;resizeLast=1;" parent="1" vertex="1">
          <mxGeometry x="50" y="190" width="300" height="240" as="geometry" />
        </mxCell>
        <mxCell id="EQfEUF1p5F015XXyak6D-24" value="" style="shape=partialRectangle;collapsible=0;dropTarget=0;pointerEvents=0;fillColor=none;points=[[0,0.5],[1,0.5]];portConstraint=eastwest;top=0;left=0;right=0;bottom=1;" parent="EQfEUF1p5F015XXyak6D-23" vertex="1">
          <mxGeometry y="30" width="300" height="30" as="geometry" />
        </mxCell>
        <mxCell id="EQfEUF1p5F015XXyak6D-25" value="PK" style="shape=partialRectangle;overflow=hidden;connectable=0;fillColor=none;top=0;left=0;bottom=0;right=0;fontStyle=1;" parent="EQfEUF1p5F015XXyak6D-24" vertex="1">
          <mxGeometry width="30" height="30" as="geometry" />
        </mxCell>
        <mxCell id="EQfEUF1p5F015XXyak6D-26" value="user_id int NOT NULL " style="shape=partialRectangle;overflow=hidden;connectable=0;fillColor=none;top=0;left=0;bottom=0;right=0;align=left;spacingLeft=6;fontStyle=5;" parent="EQfEUF1p5F015XXyak6D-24" vertex="1">
          <mxGeometry x="30" width="270" height="30" as="geometry" />
        </mxCell>
        <mxCell id="EQfEUF1p5F015XXyak6D-30" value="" style="shape=partialRectangle;collapsible=0;dropTarget=0;pointerEvents=0;fillColor=none;points=[[0,0.5],[1,0.5]];portConstraint=eastwest;top=0;left=0;right=0;bottom=0;" parent="EQfEUF1p5F015XXyak6D-23" vertex="1">
          <mxGeometry y="60" width="300" height="140" as="geometry" />
        </mxCell>
        <mxCell id="EQfEUF1p5F015XXyak6D-31" value="" style="shape=partialRectangle;overflow=hidden;connectable=0;fillColor=none;top=0;left=0;bottom=0;right=0;" parent="EQfEUF1p5F015XXyak6D-30" vertex="1">
          <mxGeometry width="30" height="140" as="geometry" />
        </mxCell>
        <mxCell id="EQfEUF1p5F015XXyak6D-32" value="university_id ENUM (BIS, SUR, NORTE)&#xa;&#xa;first_name VARCHAR(20) NOT NULL&#xa;last_name VARCHAR (50) NOT NULL&#xa;cellphone_number VARCHAR(20) NOT NULL&#xa;gender ENUM(M, F) &#xa;email VARCHAR(30) NOT NULL&#xa;password VARCHAR (30) NOT NULL&#xa;student_id INTEGER(10) NOT NULL&#xa;&#xa;&#xa;&#xa;&#xa;&#xa;" style="shape=partialRectangle;overflow=hidden;connectable=0;fillColor=none;top=0;left=0;bottom=0;right=0;align=left;spacingLeft=6;" parent="EQfEUF1p5F015XXyak6D-30" vertex="1">
          <mxGeometry x="30" width="270" height="140" as="geometry" />
        </mxCell>
        <mxCell id="EQfEUF1p5F015XXyak6D-13" value="car_account" style="shape=table;startSize=30;container=1;collapsible=1;childLayout=tableLayout;fixedRows=1;rowLines=0;fontStyle=1;align=center;resizeLast=1;" parent="1" vertex="1">
          <mxGeometry x="520" y="100" width="250" height="270" as="geometry" />
        </mxCell>
        <mxCell id="EQfEUF1p5F015XXyak6D-14" value="" style="shape=partialRectangle;collapsible=0;dropTarget=0;pointerEvents=0;fillColor=none;points=[[0,0.5],[1,0.5]];portConstraint=eastwest;top=0;left=0;right=0;bottom=1;" parent="EQfEUF1p5F015XXyak6D-13" vertex="1">
          <mxGeometry y="30" width="250" height="30" as="geometry" />
        </mxCell>
        <mxCell id="EQfEUF1p5F015XXyak6D-15" value="PK" style="shape=partialRectangle;overflow=hidden;connectable=0;fillColor=none;top=0;left=0;bottom=0;right=0;fontStyle=1;" parent="EQfEUF1p5F015XXyak6D-14" vertex="1">
          <mxGeometry width="30" height="30" as="geometry" />
        </mxCell>
        <mxCell id="EQfEUF1p5F015XXyak6D-16" value="car_id int NOT NULL " style="shape=partialRectangle;overflow=hidden;connectable=0;fillColor=none;top=0;left=0;bottom=0;right=0;align=left;spacingLeft=6;fontStyle=5;" parent="EQfEUF1p5F015XXyak6D-14" vertex="1">
          <mxGeometry x="30" width="220" height="30" as="geometry" />
        </mxCell>
        <mxCell id="EQfEUF1p5F015XXyak6D-17" value="" style="shape=partialRectangle;collapsible=0;dropTarget=0;pointerEvents=0;fillColor=none;points=[[0,0.5],[1,0.5]];portConstraint=eastwest;top=0;left=0;right=0;bottom=0;" parent="EQfEUF1p5F015XXyak6D-13" vertex="1">
          <mxGeometry y="60" width="250" height="50" as="geometry" />
        </mxCell>
        <mxCell id="EQfEUF1p5F015XXyak6D-18" value="fk" style="shape=partialRectangle;overflow=hidden;connectable=0;fillColor=none;top=0;left=0;bottom=0;right=0;" parent="EQfEUF1p5F015XXyak6D-17" vertex="1">
          <mxGeometry width="30" height="50" as="geometry" />
        </mxCell>
        <mxCell id="EQfEUF1p5F015XXyak6D-19" value="user_id" style="shape=partialRectangle;overflow=hidden;connectable=0;fillColor=none;top=0;left=0;bottom=0;right=0;align=left;spacingLeft=6;" parent="EQfEUF1p5F015XXyak6D-17" vertex="1">
          <mxGeometry x="30" width="220" height="50" as="geometry" />
        </mxCell>
        <mxCell id="EQfEUF1p5F015XXyak6D-20" value="" style="shape=partialRectangle;collapsible=0;dropTarget=0;pointerEvents=0;fillColor=none;points=[[0,0.5],[1,0.5]];portConstraint=eastwest;top=0;left=0;right=0;bottom=0;" parent="EQfEUF1p5F015XXyak6D-13" vertex="1">
          <mxGeometry y="110" width="250" height="100" as="geometry" />
        </mxCell>
        <mxCell id="EQfEUF1p5F015XXyak6D-21" value="" style="shape=partialRectangle;overflow=hidden;connectable=0;fillColor=none;top=0;left=0;bottom=0;right=0;" parent="EQfEUF1p5F015XXyak6D-20" vertex="1">
          <mxGeometry width="30" height="100" as="geometry" />
        </mxCell>
        <mxCell id="EQfEUF1p5F015XXyak6D-22" value="type_car CHAR(15) NOT NULL&#xa;ride_cost DOUBLE NOT NULL&#xa;car_plates VARCHAR(10)&#xa;num_passengers INT NOT NULL&#xa;availability ENUM(&quot;YES&quot;,&quot;NO&quot;)&#xa;" style="shape=partialRectangle;overflow=hidden;connectable=0;fillColor=none;top=0;left=0;bottom=0;right=0;align=left;spacingLeft=6;" parent="EQfEUF1p5F015XXyak6D-20" vertex="1">
          <mxGeometry x="30" width="220" height="100" as="geometry" />
        </mxCell>
        <mxCell id="YDE4dZeYNoiA2_BQrQlV-1" value="ride_joins" style="shape=table;startSize=30;container=1;collapsible=1;childLayout=tableLayout;fixedRows=1;rowLines=0;fontStyle=1;align=center;resizeLast=1;" parent="1" vertex="1">
          <mxGeometry x="505" y="435" width="250" height="175" as="geometry" />
        </mxCell>
        <mxCell id="YDE4dZeYNoiA2_BQrQlV-2" value="" style="shape=partialRectangle;collapsible=0;dropTarget=0;pointerEvents=0;fillColor=none;points=[[0,0.5],[1,0.5]];portConstraint=eastwest;top=0;left=0;right=0;bottom=1;" parent="YDE4dZeYNoiA2_BQrQlV-1" vertex="1">
          <mxGeometry y="30" width="250" height="30" as="geometry" />
        </mxCell>
        <mxCell id="YDE4dZeYNoiA2_BQrQlV-3" value="PK" style="shape=partialRectangle;overflow=hidden;connectable=0;fillColor=none;top=0;left=0;bottom=0;right=0;fontStyle=1;" parent="YDE4dZeYNoiA2_BQrQlV-2" vertex="1">
          <mxGeometry width="30" height="30" as="geometry" />
        </mxCell>
        <mxCell id="YDE4dZeYNoiA2_BQrQlV-4" value="ride_joins_id int NOT NULL " style="shape=partialRectangle;overflow=hidden;connectable=0;fillColor=none;top=0;left=0;bottom=0;right=0;align=left;spacingLeft=6;fontStyle=5;" parent="YDE4dZeYNoiA2_BQrQlV-2" vertex="1">
          <mxGeometry x="30" width="220" height="30" as="geometry" />
        </mxCell>
        <mxCell id="YDE4dZeYNoiA2_BQrQlV-5" value="" style="shape=partialRectangle;collapsible=0;dropTarget=0;pointerEvents=0;fillColor=none;points=[[0,0.5],[1,0.5]];portConstraint=eastwest;top=0;left=0;right=0;bottom=0;" parent="YDE4dZeYNoiA2_BQrQlV-1" vertex="1">
          <mxGeometry y="60" width="250" height="55" as="geometry" />
        </mxCell>
        <mxCell id="YDE4dZeYNoiA2_BQrQlV-6" value="fk" style="shape=partialRectangle;overflow=hidden;connectable=0;fillColor=none;top=0;left=0;bottom=0;right=0;" parent="YDE4dZeYNoiA2_BQrQlV-5" vertex="1">
          <mxGeometry width="30" height="55" as="geometry" />
        </mxCell>
        <mxCell id="YDE4dZeYNoiA2_BQrQlV-7" value="user_id&#xa;car_id&#xa;route_id" style="shape=partialRectangle;overflow=hidden;connectable=0;fillColor=none;top=0;left=0;bottom=0;right=0;align=left;spacingLeft=6;" parent="YDE4dZeYNoiA2_BQrQlV-5" vertex="1">
          <mxGeometry x="30" width="220" height="55" as="geometry" />
        </mxCell>
        <mxCell id="LAKaVyZVRx_t9Ywl6Zzv-12" value="" style="edgeStyle=entityRelationEdgeStyle;fontSize=12;html=1;endArrow=ERmany;startArrow=ERmany;" parent="1" source="EQfEUF1p5F015XXyak6D-30" edge="1">
          <mxGeometry width="100" height="100" relative="1" as="geometry">
            <mxPoint x="320" y="360" as="sourcePoint" />
            <mxPoint x="505" y="520" as="targetPoint" />
          </mxGeometry>
        </mxCell>
        <mxCell id="LAKaVyZVRx_t9Ywl6Zzv-14" value="" style="edgeStyle=entityRelationEdgeStyle;fontSize=12;html=1;endArrow=ERoneToMany;entryX=0.5;entryY=1;entryDx=0;entryDy=0;exitX=0.5;exitY=0;exitDx=0;exitDy=0;" parent="1" source="tgZCTPRmFZ8tOOvwQOHB-1" target="EQfEUF1p5F015XXyak6D-23" edge="1">
          <mxGeometry width="100" height="100" relative="1" as="geometry">
            <mxPoint x="260" y="430" as="sourcePoint" />
            <mxPoint x="180" y="385" as="targetPoint" />
          </mxGeometry>
        </mxCell>
        <mxCell id="LAKaVyZVRx_t9Ywl6Zzv-15" value="" style="edgeStyle=entityRelationEdgeStyle;fontSize=12;html=1;endArrow=ERmany;startArrow=ERmany;entryX=0.5;entryY=0;entryDx=0;entryDy=0;exitX=0.5;exitY=1;exitDx=0;exitDy=0;" parent="1" target="YDE4dZeYNoiA2_BQrQlV-1" edge="1" source="EQfEUF1p5F015XXyak6D-13">
          <mxGeometry width="100" height="100" relative="1" as="geometry">
            <mxPoint x="640" y="380" as="sourcePoint" />
            <mxPoint x="515" y="530" as="targetPoint" />
          </mxGeometry>
        </mxCell>
        <mxCell id="tgZCTPRmFZ8tOOvwQOHB-1" value="university" style="shape=table;startSize=30;container=1;collapsible=1;childLayout=tableLayout;fixedRows=1;rowLines=0;fontStyle=1;align=center;resizeLast=1;" parent="1" vertex="1">
          <mxGeometry x="60" y="480" width="300" height="160" as="geometry" />
        </mxCell>
        <mxCell id="tgZCTPRmFZ8tOOvwQOHB-2" value="" style="shape=partialRectangle;collapsible=0;dropTarget=0;pointerEvents=0;fillColor=none;points=[[0,0.5],[1,0.5]];portConstraint=eastwest;top=0;left=0;right=0;bottom=1;" parent="tgZCTPRmFZ8tOOvwQOHB-1" vertex="1">
          <mxGeometry y="30" width="300" height="30" as="geometry" />
        </mxCell>
        <mxCell id="tgZCTPRmFZ8tOOvwQOHB-3" value="PK" style="shape=partialRectangle;overflow=hidden;connectable=0;fillColor=none;top=0;left=0;bottom=0;right=0;fontStyle=1;" parent="tgZCTPRmFZ8tOOvwQOHB-2" vertex="1">
          <mxGeometry width="30" height="30" as="geometry" />
        </mxCell>
        <mxCell id="tgZCTPRmFZ8tOOvwQOHB-4" value="university_id int NOT NULL " style="shape=partialRectangle;overflow=hidden;connectable=0;fillColor=none;top=0;left=0;bottom=0;right=0;align=left;spacingLeft=6;fontStyle=5;" parent="tgZCTPRmFZ8tOOvwQOHB-2" vertex="1">
          <mxGeometry x="30" width="270" height="30" as="geometry" />
        </mxCell>
        <mxCell id="tgZCTPRmFZ8tOOvwQOHB-5" value="" style="shape=partialRectangle;collapsible=0;dropTarget=0;pointerEvents=0;fillColor=none;points=[[0,0.5],[1,0.5]];portConstraint=eastwest;top=0;left=0;right=0;bottom=0;" parent="tgZCTPRmFZ8tOOvwQOHB-1" vertex="1">
          <mxGeometry y="60" width="300" height="100" as="geometry" />
        </mxCell>
        <mxCell id="tgZCTPRmFZ8tOOvwQOHB-6" value="" style="shape=partialRectangle;overflow=hidden;connectable=0;fillColor=none;top=0;left=0;bottom=0;right=0;" parent="tgZCTPRmFZ8tOOvwQOHB-5" vertex="1">
          <mxGeometry width="30" height="100" as="geometry" />
        </mxCell>
        <mxCell id="tgZCTPRmFZ8tOOvwQOHB-7" value="&#xa;&#xa;university_name VARCHAR (50)&#xa;NOT NULL&#xa;university_address VARCHAR(50) NOT NULL&#xa;&#xa;&#xa;&#xa;&#xa;" style="shape=partialRectangle;overflow=hidden;connectable=0;fillColor=none;top=0;left=0;bottom=0;right=0;align=left;spacingLeft=6;" parent="tgZCTPRmFZ8tOOvwQOHB-5" vertex="1">
          <mxGeometry x="30" width="270" height="100" as="geometry" />
        </mxCell>
        <mxCell id="h7xZWg5v1RvkeevIDam4-1" value="route" style="shape=table;startSize=30;container=1;collapsible=1;childLayout=tableLayout;fixedRows=1;rowLines=0;fontStyle=1;align=center;resizeLast=1;" vertex="1" parent="1">
          <mxGeometry x="470" y="670" width="300" height="160" as="geometry" />
        </mxCell>
        <mxCell id="h7xZWg5v1RvkeevIDam4-2" value="" style="shape=partialRectangle;collapsible=0;dropTarget=0;pointerEvents=0;fillColor=none;points=[[0,0.5],[1,0.5]];portConstraint=eastwest;top=0;left=0;right=0;bottom=1;" vertex="1" parent="h7xZWg5v1RvkeevIDam4-1">
          <mxGeometry y="30" width="300" height="30" as="geometry" />
        </mxCell>
        <mxCell id="h7xZWg5v1RvkeevIDam4-3" value="PK" style="shape=partialRectangle;overflow=hidden;connectable=0;fillColor=none;top=0;left=0;bottom=0;right=0;fontStyle=1;" vertex="1" parent="h7xZWg5v1RvkeevIDam4-2">
          <mxGeometry width="30" height="30" as="geometry" />
        </mxCell>
        <mxCell id="h7xZWg5v1RvkeevIDam4-4" value="route_id int NOT NULL " style="shape=partialRectangle;overflow=hidden;connectable=0;fillColor=none;top=0;left=0;bottom=0;right=0;align=left;spacingLeft=6;fontStyle=5;" vertex="1" parent="h7xZWg5v1RvkeevIDam4-2">
          <mxGeometry x="30" width="270" height="30" as="geometry" />
        </mxCell>
        <mxCell id="h7xZWg5v1RvkeevIDam4-5" value="" style="shape=partialRectangle;collapsible=0;dropTarget=0;pointerEvents=0;fillColor=none;points=[[0,0.5],[1,0.5]];portConstraint=eastwest;top=0;left=0;right=0;bottom=0;" vertex="1" parent="h7xZWg5v1RvkeevIDam4-1">
          <mxGeometry y="60" width="300" height="100" as="geometry" />
        </mxCell>
        <mxCell id="h7xZWg5v1RvkeevIDam4-6" value="" style="shape=partialRectangle;overflow=hidden;connectable=0;fillColor=none;top=0;left=0;bottom=0;right=0;" vertex="1" parent="h7xZWg5v1RvkeevIDam4-5">
          <mxGeometry width="30" height="100" as="geometry" />
        </mxCell>
        <mxCell id="h7xZWg5v1RvkeevIDam4-7" value="&#xa;&#xa;route_link VARCHAR (100)&#xa;NOT NULL&#xa;&#xa;&#xa;&#xa;&#xa;" style="shape=partialRectangle;overflow=hidden;connectable=0;fillColor=none;top=0;left=0;bottom=0;right=0;align=left;spacingLeft=6;" vertex="1" parent="h7xZWg5v1RvkeevIDam4-5">
          <mxGeometry x="30" width="270" height="100" as="geometry" />
        </mxCell>
        <mxCell id="h7xZWg5v1RvkeevIDam4-8" value="" style="edgeStyle=entityRelationEdgeStyle;fontSize=12;html=1;endArrow=ERmany;startArrow=ERmany;entryX=0.5;entryY=0;entryDx=0;entryDy=0;" edge="1" parent="1">
          <mxGeometry width="100" height="100" relative="1" as="geometry">
            <mxPoint x="628" y="610" as="sourcePoint" />
            <mxPoint x="612.5" y="670" as="targetPoint" />
          </mxGeometry>
        </mxCell>
      </root>
    </mxGraphModel>
  </diagram>
</mxfile>
